<?xml version="1.0" standalone="no"?>
<!DOCTYPE svg PUBLIC "-//W3C//DTD SVG 20010904//EN"
 "http://www.w3.org/TR/2001/REC-SVG-20010904/DTD/svg10.dtd">
<svg version="1.0" xmlns="http://www.w3.org/2000/svg"
 width="1920.000000pt" height="512.000000pt" viewBox="0 0 1920.000000 512.000000"
 preserveAspectRatio="xMidYMid meet">

<g transform="translate(0.000000,512.000000) scale(0.100000,-0.100000)"
fill="#000000" stroke="none">
<path d="M600 5109 c-156 -20 -326 -102 -415 -200 -98 -109 -156 -245 -175
-411 -8 -64 -10 -686 -8 -1998 l3 -1905 22 -78 c69 -241 219 -398 458 -479
l70 -23 1960 -3 c2161 -3 2034 -6 2190 59 188 79 332 255 382 468 17 72 18
190 18 2036 l0 1960 -23 78 c-59 205 -170 341 -347 427 -168 81 16 74 -2145
76 -1059 1 -1954 -2 -1990 -7z m3941 -337 c113 -45 176 -112 216 -226 17 -48
18 -156 18 -1986 l0 -1935 -23 -57 c-50 -124 -162 -207 -308 -228 -44 -6 -731
-10 -1899 -9 -1957 0 -1927 -1 -2024 49 -97 49 -165 142 -190 258 -8 38 -11
586 -11 1930 0 2021 -2 1941 50 2043 26 49 91 114 142 140 97 49 22 48 2063
46 l1910 -2 56 -23z"/>
<path d="M1239 3786 c-118 -33 -199 -102 -253 -215 l-31 -66 -3 -570 c-3 -555
-2 -572 18 -635 39 -122 115 -197 241 -241 55 -19 91 -23 268 -27 l204 -5 -6
-71 c-9 -105 -25 -145 -82 -201 -69 -70 -122 -87 -297 -93 l-138 -4 0 -159 0
-159 103 0 c446 0 696 155 761 473 14 66 16 204 16 1032 l0 955 -377 -1 c-272
-1 -391 -4 -424 -13z m439 -874 l2 -564 -139 4 c-122 3 -143 6 -168 24 -63 46
-63 44 -63 531 0 484 2 502 58 539 41 27 77 32 197 31 l110 -2 3 -563z"/>
<path d="M2330 2915 l0 -885 180 0 180 0 2 723 3 722 183 3 182 2 0 -725 0
-725 180 0 180 0 2 723 3 722 130 0 c113 0 135 -3 165 -20 73 -43 70 -12 70
-757 l0 -668 180 0 180 0 -2 743 -3 742 -32 67 c-35 74 -92 137 -152 168 -98
50 -104 50 -893 50 l-738 0 0 -885z"/>
<path d="M2330 1500 l0 -160 910 0 910 0 0 160 0 160 -910 0 -910 0 0 -160z"/>
<path d="M12332 2838 l3 -533 27 -51 c48 -92 120 -139 228 -151 l60 -6 0 69 0
69 -49 18 c-84 30 -81 7 -81 601 l0 516 -95 0 -96 0 3 -532z"/>
<path d="M16138 3153 l-3 -118 -82 -3 -83 -3 0 -64 0 -65 84 0 85 0 3 -302 c3
-296 4 -304 27 -348 50 -95 119 -138 237 -147 l74 -6 0 70 0 70 -45 7 c-60 8
-81 20 -102 59 -16 28 -18 68 -21 315 l-3 282 85 0 86 0 0 65 0 64 -82 3 -83
3 -3 118 -3 117 -84 0 -84 0 -3 -117z"/>
<path d="M6620 3014 c-45 -20 -77 -50 -101 -96 -17 -34 -19 -62 -19 -349 l0
-311 27 -50 c19 -34 41 -58 72 -76 43 -25 56 -27 179 -31 l134 -3 -7 -47 c-15
-103 -70 -144 -202 -150 l-83 -3 0 -64 0 -64 78 0 c154 1 268 41 331 117 61
74 61 76 61 635 l0 508 -217 0 c-172 -1 -225 -4 -253 -16z m288 -441 l-3 -328
-87 0 c-78 0 -89 2 -112 24 l-26 24 0 279 0 279 26 24 c24 23 35 25 116 25
l88 0 -2 -327z"/>
<path d="M7640 3008 c-26 -14 -57 -41 -75 -66 l-30 -44 -3 -311 c-2 -267 -1
-318 13 -354 20 -51 81 -108 132 -122 21 -6 120 -11 221 -11 l182 0 0 69 0 70
-161 3 -161 3 -24 28 c-20 23 -24 39 -24 88 0 82 18 99 140 129 168 41 251 89
270 158 13 49 13 172 -1 226 -14 56 -58 109 -112 135 -38 18 -62 21 -183 21
-125 0 -144 -2 -184 -22z m266 -132 c24 -20 28 -32 32 -90 5 -74 -9 -121 -41
-138 -11 -5 -57 -23 -103 -38 l-84 -29 0 134 0 133 31 26 c42 36 125 37 165 2z"/>
<path d="M8530 2566 l0 -466 95 0 95 0 0 400 0 400 86 0 c81 0 87 -1 115 -29
l29 -29 0 -371 0 -371 90 0 91 0 -3 393 c-3 375 -4 394 -24 432 -11 22 -40 54
-63 70 l-43 30 -234 3 -234 3 0 -465z"/>
<path d="M9685 3016 c-38 -16 -102 -87 -112 -123 -5 -16 -8 -165 -8 -333 0
-297 1 -306 22 -347 25 -47 71 -84 122 -102 20 -6 107 -11 217 -11 l184 0 0
70 0 70 -145 0 c-158 0 -188 7 -211 51 -21 41 -18 111 6 141 23 30 47 40 159
68 100 25 165 57 206 100 29 30 30 35 33 137 5 135 -1 161 -45 213 -59 69 -94
80 -258 79 -93 0 -150 -4 -170 -13z m238 -128 c39 -20 46 -40 47 -124 0 -75
-2 -82 -27 -106 -26 -23 -148 -68 -188 -68 -15 0 -16 14 -13 131 3 129 3 131
31 155 22 18 40 24 78 24 28 0 60 -5 72 -12z"/>
<path d="M10570 2565 l0 -465 90 0 90 0 0 335 0 335 35 39 c43 47 109 77 193
87 l62 7 0 63 0 64 -77 0 c-55 0 -98 -7 -145 -24 l-68 -23 0 24 c0 22 -2 23
-90 23 l-90 0 0 -465z"/>
<path d="M11360 2966 l0 -66 148 0 c166 0 182 -5 202 -66 13 -40 6 -117 -13
-132 -7 -5 -68 -27 -137 -47 -144 -43 -203 -73 -231 -118 -16 -27 -19 -51 -19
-158 0 -153 16 -195 95 -244 l48 -30 224 -3 223 -3 0 394 0 395 -32 48 c-56
81 -80 88 -310 92 l-198 3 0 -65z m358 -572 l-3 -149 -87 0 c-78 0 -89 2 -112
24 -24 22 -26 31 -26 107 0 63 4 87 18 103 19 24 192 84 205 72 4 -4 6 -75 5
-157z"/>
<path d="M13610 2565 l0 -465 90 0 90 0 0 400 0 400 115 0 115 0 0 -400 0
-400 95 0 95 0 0 400 0 400 86 0 c81 0 87 -1 115 -29 l29 -29 0 -371 0 -371
90 0 91 0 -3 399 -3 399 -30 43 c-16 23 -50 53 -74 66 l-44 23 -429 0 -428 0
0 -465z"/>
<path d="M15190 3019 c-43 -18 -90 -59 -110 -99 -19 -37 -20 -59 -20 -350 0
-348 1 -354 74 -418 51 -44 100 -54 246 -50 115 3 129 5 172 30 34 21 53 41
72 80 l26 52 0 303 c0 325 -3 347 -53 402 -46 50 -90 61 -242 60 -77 0 -151
-5 -165 -10z m254 -144 l26 -24 0 -279 0 -279 -25 -23 c-18 -17 -40 -25 -79
-28 -48 -4 -56 -1 -87 26 l-34 30 -3 258 c-3 271 1 301 42 329 12 9 44 15 77
15 46 0 61 -5 83 -25z"/>
<path d="M16941 3004 c-34 -17 -62 -41 -79 -67 l-27 -40 -3 -311 c-3 -354 -1
-370 70 -430 54 -46 115 -59 258 -55 135 5 178 21 225 88 l30 43 0 338 0 338
-31 39 c-16 21 -50 48 -74 61 -39 20 -59 22 -180 22 -127 0 -140 -2 -189 -26z
m274 -128 c33 -33 37 -76 33 -344 l-3 -234 -34 -30 c-31 -27 -39 -30 -87 -26
-39 3 -61 11 -79 28 l-25 23 0 279 0 279 26 24 c22 21 37 25 86 25 49 0 63 -4
83 -24z"/>
<path d="M17860 2565 l0 -465 90 0 90 0 0 325 c0 349 1 355 52 401 38 35 84
54 163 67 l75 12 0 64 0 64 -92 -5 c-58 -4 -113 -13 -145 -26 l-53 -20 0 24
c0 24 -2 24 -90 24 l-90 0 0 -465z"/>
<path d="M18725 3016 c-40 -17 -95 -72 -111 -113 -9 -20 -14 -71 -14 -136 0
-92 3 -108 23 -138 32 -47 84 -73 222 -110 145 -38 166 -54 173 -131 5 -67 -9
-103 -50 -128 -30 -18 -51 -20 -200 -20 l-168 0 0 -71 0 -70 229 3 229 3 44
30 c69 49 91 100 95 219 4 83 1 107 -14 136 -30 57 -89 93 -219 134 -177 54
-168 48 -172 136 -3 82 7 112 45 129 14 6 85 11 173 11 l150 0 0 65 0 65 -202
0 c-146 -1 -212 -5 -233 -14z"/>
</g>
</svg>
