<?xml version="1.0" standalone="no"?>
<!DOCTYPE svg PUBLIC "-//W3C//DTD SVG 20010904//EN"
 "http://www.w3.org/TR/2001/REC-SVG-20010904/DTD/svg10.dtd">
<svg version="1.0" xmlns="http://www.w3.org/2000/svg"
 width="200.000000pt" height="84.000000pt" viewBox="0 0 200.000000 84.000000"
 preserveAspectRatio="xMidYMid meet">

<g transform="translate(0.000000,84.000000) scale(0.100000,-0.100000)"
fill="#000000" stroke="none">
<path d="M241 422 c-33 -132 -61 -244 -61 -251 0 -8 60 -11 237 -9 l236 3 57
220 c31 121 60 232 64 248 l6 27 -238 0 -239 0 -62 -238z m189 180 c0 -28 -10
-33 -34 -17 -11 8 -33 15 -49 15 -16 0 -26 4 -22 10 3 6 28 10 56 10 41 0 49
-3 49 -18z m300 6 c0 -7 -6 -35 -13 -63 l-13 -50 -67 -3 c-83 -4 -89 -22 -7
-22 67 0 68 -1 48 -75 l-12 -45 -68 0 c-54 0 -68 -3 -68 -15 0 -12 13 -15 60
-15 67 0 67 1 48 -79 l-11 -51 -134 0 c-123 0 -134 1 -129 18 2 9 25 98 51
197 25 99 48 188 51 198 5 15 20 17 135 17 97 0 129 -3 129 -12z m-349 -58
c37 -20 18 -80 -26 -80 -27 0 -45 18 -45 45 0 40 32 55 71 35z m-33 -118 c17
-2 32 -7 32 -11 0 -3 -12 -57 -27 -118 l-27 -113 -53 0 c-29 0 -53 3 -53 6 0
4 15 62 32 130 27 101 36 123 48 118 8 -4 30 -9 48 -12z"/>
<path d="M1520 640 c-6 -11 -7 -20 -2 -20 10 0 32 21 32 32 0 16 -19 8 -30
-12z"/>
<path d="M825 580 c-10 -39 -15 -74 -12 -77 16 -16 36 12 51 71 20 80 20 76
-3 76 -15 0 -22 -14 -36 -70z"/>
<path d="M1297 643 c-13 -12 -7 -23 13 -23 11 0 20 7 20 15 0 15 -21 21 -33 8z"/>
<path d="M1112 609 c-13 -5 -29 -23 -37 -41 -16 -37 -20 -23 -5 17 10 26 10
26 -33 23 -37 -3 -44 -7 -60 -38 l-17 -35 2 35 c3 34 2 35 -38 38 l-40 3 -12
-52 c-7 -29 -10 -54 -8 -57 10 -10 36 8 36 25 0 21 17 50 24 42 3 -3 2 -20 -3
-37 -8 -28 -7 -32 10 -32 11 0 19 7 19 18 1 16 1 16 14 0 7 -10 21 -18 30 -18
9 0 16 -5 16 -10 0 -6 -11 -8 -25 -4 -19 5 -25 2 -25 -10 0 -9 7 -19 15 -22
12 -5 13 -9 4 -20 -7 -8 -8 -18 -4 -22 4 -4 10 -1 12 6 3 8 18 27 34 43 16 16
29 39 29 51 l0 22 20 -22 c23 -25 33 -27 61 -12 27 15 24 33 -6 28 -14 -3 -25
-1 -25 3 0 5 13 9 29 9 16 0 32 6 35 13 3 6 3 -3 0 -20 -4 -26 -2 -33 10 -33
15 0 21 10 42 69 10 29 15 1 6 -33 -9 -32 -8 -36 8 -36 12 0 21 13 30 44 7 25
9 49 5 55 -3 6 -24 11 -46 11 -34 0 -39 -3 -40 -22 l0 -23 -11 22 c-13 27 -27
33 -56 22z m-87 -58 c-7 -23 -25 -29 -25 -8 0 14 21 39 28 33 2 -3 1 -14 -3
-25z"/>
<path d="M1346 599 c-22 -18 -26 -18 -26 -4 0 26 -33 14 -40 -15 -21 -79 -21
-80 -2 -80 12 0 22 11 29 33 5 17 8 23 7 11 -2 -11 3 -29 10 -40 12 -15 19
-17 42 -9 37 14 46 40 10 33 -14 -3 -26 -1 -26 3 0 5 13 9 29 9 16 0 32 6 35
13 3 6 3 -3 0 -20 -4 -26 -2 -33 11 -33 8 0 18 8 21 18 9 29 20 46 33 50 9 3
11 -5 6 -32 -6 -29 -4 -36 9 -36 9 0 19 15 26 41 6 22 14 47 17 55 4 11 -6 14
-51 14 -51 0 -56 -2 -56 -22 -1 -22 -1 -22 -12 -3 -22 40 -36 42 -72 14z"/>
<path d="M1571 609 c-16 -6 -22 -15 -18 -28 3 -12 -1 -22 -9 -25 -15 -6 -20
-52 -6 -59 4 -2 24 -2 44 0 35 5 37 6 43 55 5 38 4 53 -6 59 -17 10 -18 10
-48 -2z m26 -35 c-3 -3 -12 -4 -19 -1 -8 3 -5 6 6 6 11 1 17 -2 13 -5z m-7
-38 c0 -3 -4 -8 -10 -11 -5 -3 -10 -1 -10 4 0 6 5 11 10 11 6 0 10 -2 10 -4z"/>
<path d="M794 429 c-8 -13 -34 -109 -34 -127 0 -22 84 -11 88 11 3 13 -4 17
-25 18 -23 2 -24 2 -5 6 12 2 27 13 32 24 9 16 7 19 -10 19 -11 0 -20 5 -20
10 0 6 11 10 24 10 23 0 41 22 29 34 -11 10 -71 7 -79 -5z"/>
<path d="M897 433 c-8 -13 -37 -116 -37 -130 0 -7 7 -13 15 -13 8 0 19 17 25
43 6 23 15 54 20 69 8 26 5 38 -11 38 -4 0 -10 -3 -12 -7z"/>
<path d="M1265 428 c-18 -54 -36 -130 -31 -135 12 -13 34 8 40 39 11 60 14 73
21 91 5 12 2 17 -9 17 -9 0 -19 -6 -21 -12z"/>
<path d="M1561 414 c-28 -35 -26 -48 7 -73 15 -11 22 -21 15 -21 -6 0 -15 5
-18 10 -12 20 -35 10 -35 -14 0 -51 79 -37 96 16 5 17 0 27 -22 45 l-29 23 33
-6 c34 -7 44 10 20 34 -19 19 -45 14 -67 -14z"/>
<path d="M1665 428 c-12 -33 -35 -114 -35 -125 0 -23 30 -13 40 13 11 29 31
24 23 -6 -4 -15 0 -20 15 -20 15 0 21 8 25 38 3 20 9 51 12 68 6 27 4 32 -17
37 -36 10 -58 8 -63 -5z m45 -48 c0 -5 -4 -10 -10 -10 -5 0 -10 5 -10 10 0 6
5 10 10 10 6 0 10 -4 10 -10z"/>
<path d="M1776 432 c-4 -8 -36 -125 -36 -136 0 -3 18 -6 39 -6 26 0 41 5 45
16 9 23 8 24 -15 24 -22 0 -23 7 -3 84 5 20 2 26 -9 26 -9 0 -18 -3 -21 -8z"/>
<path d="M1128 405 c-12 -26 -23 -31 -33 -15 -10 17 -44 11 -62 -10 -17 -19
-17 -19 -30 0 -19 28 -48 25 -72 -6 -50 -64 9 -129 61 -67 12 14 10 16 -15 11
-15 -3 -30 -2 -32 2 -3 4 11 10 30 12 31 3 35 1 35 -18 0 -42 68 -40 84 2 5
14 1 16 -24 11 -33 -7 -35 -5 -19 25 9 17 13 18 20 7 7 -12 12 -12 29 -1 19
12 20 11 14 -28 -5 -32 -3 -41 10 -46 23 -9 29 0 28 40 -1 21 5 39 15 48 15
12 16 10 9 -17 -4 -16 -9 -38 -12 -47 -4 -13 0 -18 15 -18 14 0 21 6 21 20 0
11 9 28 20 37 33 29 26 51 -15 47 -29 -2 -35 1 -35 17 0 27 -28 23 -42 -6z"/>
<path d="M1307 382 c-26 -28 -32 -75 -12 -92 15 -12 21 -12 43 0 37 21 42 45
8 36 -21 -5 -26 -3 -26 13 0 23 16 36 25 21 12 -20 37 -11 33 13 -4 29 -48 35
-71 9z"/>
<path d="M1404 383 c-15 -16 -15 -17 2 -23 17 -6 16 -7 -3 -12 -21 -6 -35 -38
-24 -57 4 -6 22 -8 43 -5 33 6 37 10 47 51 7 24 9 48 6 54 -10 15 -52 10 -71
-8z m26 -63 c0 -5 -5 -10 -11 -10 -5 0 -7 5 -4 10 3 6 8 10 11 10 2 0 4 -4 4
-10z"/>
<path d="M737 224 c-13 -13 -7 -62 7 -67 17 -7 42 18 27 27 -5 3 -12 0 -14 -6
-3 -7 -6 -3 -6 10 -1 12 2 21 7 20 4 -2 8 2 10 7 4 12 -21 19 -31 9z"/>
<path d="M836 205 c-8 -31 8 -57 30 -48 10 4 14 16 12 37 -4 40 -33 48 -42 11z
m21 -27 c-3 -7 -5 -2 -5 12 0 14 2 19 5 13 2 -7 2 -19 0 -25z"/>
<path d="M940 194 c0 -27 4 -34 20 -34 16 0 20 7 20 33 0 26 -4 33 -20 34 -16
1 -20 -4 -20 -33z"/>
<path d="M1049 228 c-1 -2 -2 -18 -4 -35 -2 -27 1 -33 16 -33 15 0 19 7 19 35
0 24 -5 35 -15 35 -8 0 -15 -1 -16 -2z"/>
<path d="M1140 196 c0 -20 6 -36 14 -39 20 -8 26 2 25 42 -1 33 -2 34 -9 11
-8 -24 -8 -24 -9 -2 -2 36 -21 25 -21 -12z"/>
<path d="M1248 224 c-5 -4 -8 -20 -8 -36 0 -22 4 -28 23 -28 13 0 17 3 10 8
-6 4 -13 20 -15 35 -1 16 -6 25 -10 21z"/>
<path d="M1337 198 c6 -35 11 -44 17 -37 2 2 6 19 9 37 6 27 4 32 -13 32 -17
0 -19 -5 -13 -32z"/>
<path d="M1424 206 c-7 -30 11 -57 32 -49 21 8 14 67 -8 71 -12 2 -19 -5 -24
-22z m23 -28 c-3 -7 -5 -2 -5 12 0 14 2 19 5 13 2 -7 2 -19 0 -25z"/>
<path d="M1530 195 c0 -28 4 -35 20 -35 16 0 20 7 20 35 0 28 -4 35 -20 35
-16 0 -20 -7 -20 -35z"/>
<path d="M1636 208 c-10 -38 -7 -48 14 -48 20 0 26 22 14 54 -9 23 -21 20 -28
-6z"/>
</g>
</svg>
