<?xml version="1.0" standalone="no"?>
<!DOCTYPE svg PUBLIC "-//W3C//DTD SVG 20010904//EN"
 "http://www.w3.org/TR/2001/REC-SVG-20010904/DTD/svg10.dtd">
<svg version="1.0" xmlns="http://www.w3.org/2000/svg"
 width="109.000000pt" height="97.000000pt" viewBox="0 0 109.000000 97.000000"
 preserveAspectRatio="xMidYMid meet">

<g transform="translate(0.000000,97.000000) scale(0.100000,-0.100000)"
fill="#000000" stroke="none">
<path d="M505 931 c-11 -5 -27 -17 -36 -27 -9 -11 -112 -179 -228 -376 -150
-253 -211 -365 -211 -386 0 -48 17 -80 52 -102 32 -19 51 -20 468 -20 467 0
465 0 504 53 42 57 36 73 -200 469 -182 307 -223 370 -250 383 -35 16 -68 18
-99 6z m108 -63 c52 -70 427 -718 427 -738 0 -12 -11 -32 -25 -45 l-24 -25
-436 0 c-266 0 -443 4 -455 10 -28 15 -43 68 -27 99 41 81 412 699 429 714 11
9 35 17 54 17 26 0 38 -7 57 -32z"/>
<path d="M566 788 c-20 -23 -35 -49 -34 -58 1 -8 -1 -20 -5 -26 -9 -16 31 -50
44 -37 7 7 5 14 -6 23 -22 18 -19 28 20 71 19 22 35 43 35 48 0 26 -22 17 -54
-21z"/>
<path d="M454 769 c-7 -11 42 -58 61 -58 7 -1 7 2 0 7 -5 4 -11 14 -13 22 -8
34 -35 50 -48 29z"/>
<path d="M560 711 c0 -13 29 -35 37 -28 7 8 -15 37 -28 37 -5 0 -9 -4 -9 -9z"/>
<path d="M482 688 c-7 -7 -12 -18 -12 -25 0 -7 -8 -13 -18 -13 -19 0 -42 -18
-42 -32 0 -27 44 5 89 65 15 19 2 24 -17 5z"/>
<path d="M512 664 c-6 -11 -13 -40 -17 -66 -5 -31 -12 -48 -21 -48 -8 0 -14
-4 -14 -10 0 -5 5 -10 11 -10 8 0 8 -5 -1 -15 -7 -8 -23 -15 -36 -15 -12 0
-25 -4 -28 -9 -3 -5 15 -7 42 -4 26 3 64 4 85 4 31 -1 40 3 44 18 3 11 18 25
34 31 16 7 29 16 29 21 0 5 -16 1 -35 -8 -29 -14 -37 -15 -48 -4 -10 11 -8 13
9 9 56 -14 51 33 -9 91 -33 31 -36 32 -45 15z"/>
<path d="M536 403 c-3 -3 -6 -33 -6 -65 0 -45 3 -58 15 -58 12 0 15 13 15 59
0 56 -9 79 -24 64z"/>
<path d="M611 340 c-1 -49 2 -60 15 -60 11 0 14 5 10 16 -3 9 -6 36 -6 60 0
67 -17 53 -19 -16z"/>
<path d="M286 363 c-3 -3 -6 -23 -6 -44 l0 -37 48 2 47 1 -3 35 c-2 19 -6 38
-8 41 -5 8 -70 10 -78 2z m34 -38 c0 -14 -4 -25 -10 -25 -5 0 -10 11 -10 25 0
14 5 25 10 25 6 0 10 -11 10 -25z m27 -12 c-3 -10 -5 -4 -5 12 0 17 2 24 5 18
2 -7 2 -21 0 -30z"/>
<path d="M432 358 c-17 -17 -15 -53 3 -68 23 -19 47 6 43 44 -3 33 -25 45 -46
24z m28 -34 c0 -21 -4 -33 -10 -29 -5 3 -10 19 -10 36 0 16 5 29 10 29 6 0 10
-16 10 -36z"/>
<path d="M695 362 c-15 -11 -15 -82 1 -82 7 0 14 15 17 38 l4 37 1 -37 c2 -47
32 -55 32 -9 0 54 -23 77 -55 53z"/>
<path d="M800 350 c-22 -41 14 -84 45 -54 18 18 19 46 3 62 -18 18 -36 15 -48
-8z m40 -25 c0 -13 -4 -27 -10 -30 -6 -4 -10 8 -10 30 0 22 4 34 10 30 6 -3
10 -17 10 -30z"/>
<path d="M407 263 c-18 -17 8 -28 43 -17 13 5 13 6 0 14 -18 11 -34 13 -43 3z"/>
<path d="M178 243 c-37 -43 -27 -126 19 -144 30 -11 63 4 63 29 -1 15 -2 15
-16 -3 -22 -30 -48 -8 -52 43 -5 68 24 103 55 65 13 -17 14 -17 11 2 -4 27
-58 33 -80 8z"/>
<path d="M303 253 c15 -2 39 -2 55 0 15 2 2 4 -28 4 -30 0 -43 -2 -27 -4z"/>
<path d="M568 253 c57 -2 147 -2 200 0 53 1 7 3 -103 3 -110 0 -154 -2 -97 -3z"/>
<path d="M882 248 c-20 -20 -14 -57 13 -80 28 -24 33 -58 10 -58 -9 0 -20 10
-25 23 -9 21 -9 21 -9 -4 -1 -43 48 -49 69 -8 17 30 11 50 -22 80 -24 24 -28
32 -19 42 10 9 15 8 27 -7 14 -19 14 -19 14 2 0 16 -6 22 -23 22 -13 0 -28 -5
-35 -12z"/>
<path d="M316 219 c-26 -81 -33 -119 -21 -119 8 0 11 8 8 20 -4 14 0 20 11 20
9 0 16 -8 16 -20 0 -13 7 -20 19 -20 19 0 19 1 1 61 -21 67 -27 79 -34 58z"/>
<path d="M385 165 c0 -58 2 -65 20 -65 15 0 16 3 7 9 -8 5 -12 22 -10 42 l3
34 27 -50 c30 -56 35 -51 40 38 2 47 0 57 -13 57 -12 0 -15 -7 -12 -27 4 -27
4 -27 -11 -9 -9 11 -16 23 -16 28 0 4 -8 8 -17 8 -15 0 -18 -10 -18 -65z"/>
<path d="M498 173 c5 -65 23 -89 53 -72 14 7 19 21 19 54 0 24 3 50 6 59 4 10
1 16 -7 16 -11 0 -13 -15 -11 -61 4 -55 2 -60 -15 -57 -15 3 -18 13 -18 61 0
46 -3 57 -16 57 -13 0 -15 -10 -11 -57z"/>
<path d="M595 165 l0 -65 38 0 c28 0 37 4 37 17 0 13 -3 14 -12 5 -19 -19 -28
-14 -28 13 0 26 15 34 23 13 3 -7 6 0 6 16 1 24 -1 27 -14 16 -13 -11 -15 -8
-15 14 0 14 5 26 10 26 6 0 10 -4 10 -10 0 -5 5 -10 10 -10 6 0 10 7 10 15 0
11 -11 15 -37 15 l-38 0 0 -65z"/>
<path d="M685 165 l0 -65 57 0 c51 0 56 2 51 20 -4 14 0 20 12 20 12 0 16 -6
12 -20 -4 -16 0 -20 20 -20 19 0 23 3 16 13 -6 6 -16 36 -23 65 -6 28 -16 52
-20 52 -5 0 -14 -25 -21 -55 -11 -51 -29 -84 -29 -54 0 10 -3 10 -12 1 -23
-23 -30 -11 -26 48 3 55 1 60 -17 60 -18 0 -20 -7 -20 -65z"/>
</g>
</svg>
