<?xml version="1.0" standalone="no"?>
<!DOCTYPE svg PUBLIC "-//W3C//DTD SVG 20010904//EN"
 "http://www.w3.org/TR/2001/REC-SVG-20010904/DTD/svg10.dtd">
<svg version="1.0" xmlns="http://www.w3.org/2000/svg"
 width="190.000000pt" height="46.000000pt" viewBox="0 0 190.000000 46.000000"
 preserveAspectRatio="xMidYMid meet">

<g transform="translate(0.000000,46.000000) scale(0.100000,-0.100000)"
fill="#000000" stroke="none">
<path d="M243 410 c-23 -9 -43 -39 -43 -64 0 -25 26 -19 38 10 15 32 55 30 60
-3 4 -29 42 -32 42 -4 0 43 -55 77 -97 61z"/>
<path d="M101 304 c-12 -15 -21 -29 -21 -33 1 -27 17 -54 40 -66 26 -13 28
-13 33 5 3 13 -1 21 -14 25 -10 4 -19 14 -19 24 0 23 25 45 41 36 6 -4 15 -2
19 6 24 38 -49 41 -79 3z"/>
<path d="M352 313 c2 -11 12 -18 27 -18 13 0 29 -8 35 -18 9 -15 7 -22 -12
-37 -30 -25 -20 -53 14 -38 39 18 48 76 17 111 -22 24 -86 24 -81 0z"/>
<path d="M595 275 c-53 -52 -15 -135 63 -135 34 0 72 22 72 42 0 13 -32 17
-50 5 -26 -16 -55 2 -55 33 0 31 29 49 55 33 19 -12 50 -8 50 7 0 18 -40 40
-74 40 -26 0 -44 -7 -61 -25z"/>
<path d="M797 293 c-6 -10 -57 -143 -57 -149 0 -9 49 -3 55 6 3 6 19 10 35 10
16 0 32 -4 35 -10 3 -5 17 -10 30 -10 l24 0 -28 78 c-26 71 -31 77 -59 80 -16
2 -32 -1 -35 -5z m46 -73 c4 -15 0 -20 -15 -20 -14 0 -18 5 -14 16 3 9 6 20 6
25 0 17 17 1 23 -21z"/>
<path d="M940 220 c0 -73 2 -80 20 -80 17 0 20 7 20 40 0 22 4 40 8 40 5 0 14
-18 21 -40 15 -52 34 -51 52 3 l14 42 3 -42 c3 -38 6 -43 28 -43 23 0 24 2 24
80 l0 80 -34 0 c-29 0 -35 -5 -48 -37 l-15 -38 -16 38 c-13 31 -21 37 -46 37
l-31 0 0 -80z"/>
<path d="M1160 220 c0 -78 1 -80 24 -80 22 0 25 5 28 43 l3 42 14 -42 c18 -54
37 -55 52 -3 15 50 27 51 25 3 -1 -32 2 -38 22 -41 21 -3 22 -1 22 77 l0 81
-34 0 c-30 0 -35 -4 -41 -30 -10 -43 -22 -45 -35 -5 -10 31 -16 35 -46 35
l-34 0 0 -80z"/>
<path d="M1380 220 l0 -81 63 3 c47 2 62 7 62 18 0 10 -12 16 -37 18 -48 4
-50 22 -3 22 28 0 35 4 35 20 0 16 -7 20 -35 20 -47 0 -45 18 3 22 25 2 37 8
37 18 0 11 -15 16 -62 18 l-63 3 0 -81z"/>
<path d="M1548 289 c-39 -22 -6 -89 44 -89 9 0 20 -5 24 -12 5 -8 -4 -9 -34
-6 -49 7 -77 -13 -43 -31 52 -28 131 -3 131 42 0 19 -37 47 -62 47 -9 0 -20 5
-24 12 -5 8 2 9 24 5 36 -7 67 17 41 34 -19 12 -80 11 -101 -2z"/>
<path d="M1706 228 c-14 -40 -26 -76 -26 -80 0 -5 11 -8 25 -8 14 0 25 5 25
10 0 6 16 10 35 10 19 0 35 -4 35 -10 0 -5 11 -10 25 -10 14 0 25 3 25 8 0 4
-12 40 -26 80 -26 69 -28 72 -59 72 -31 0 -33 -3 -59 -72z m74 -15 c0 -7 -7
-13 -15 -13 -16 0 -19 9 -9 35 5 13 8 14 15 3 5 -7 9 -19 9 -25z"/>
<path d="M142 168 c-7 -7 -12 -27 -12 -44 0 -58 77 -87 116 -43 15 17 16 22 4
29 -10 6 -20 4 -31 -6 -28 -26 -73 12 -49 41 15 18 -12 39 -28 23z"/>
<path d="M372 168 c-7 -7 -8 -17 -2 -29 7 -13 6 -22 -6 -33 -19 -20 -23 -20
-43 -2 -11 10 -22 12 -31 6 -12 -7 -11 -12 4 -29 40 -44 116 -12 116 48 0 34
-21 56 -38 39z"/>
</g>
</svg>
