<?xml version="1.0" standalone="no"?>
<!DOCTYPE svg PUBLIC "-//W3C//DTD SVG 20010904//EN"
 "http://www.w3.org/TR/2001/REC-SVG-20010904/DTD/svg10.dtd">
<svg version="1.0" xmlns="http://www.w3.org/2000/svg"
 width="200.000000pt" height="100.000000pt" viewBox="0 0 200.000000 100.000000"
 preserveAspectRatio="xMidYMid meet">

<g transform="translate(0.000000,100.000000) scale(0.100000,-0.100000)"
fill="#000000" stroke="none">
<path d="M160 605 l-105 -105 108 -108 107 -107 107 107 108 108 -105 105
c-58 58 -107 105 -110 105 -3 0 -52 -47 -110 -105z m118 -47 c-3 -7 -16 -43
-29 -80 -13 -38 -27 -68 -31 -68 -3 0 -15 24 -26 53 -11 28 -25 64 -31 80
l-11 27 66 0 c49 0 65 -3 62 -12z m86 -30 c-15 -49 -36 -90 -42 -84 -11 12
-40 95 -34 100 3 4 23 6 44 6 36 0 39 -2 32 -22z m56 -10 c0 -24 -12 -58 -20
-58 -6 0 -30 52 -30 66 0 2 11 4 25 4 14 0 25 -6 25 -12z"/>
<path d="M557 560 c-4 -16 0 -20 19 -20 29 0 29 7 -1 -127 -4 -19 -1 -23 18
-23 21 0 25 7 36 58 19 87 21 92 41 92 11 0 24 9 30 20 10 19 8 20 -63 20 -66
0 -75 -2 -80 -20z"/>
<path d="M687 493 c-4 -21 -9 -53 -13 -70 -6 -29 -4 -33 15 -33 14 0 22 8 27
28 11 54 23 72 48 72 15 0 25 7 29 20 6 23 -21 28 -42 8 -11 -10 -14 -10 -18
0 -3 6 -13 12 -23 12 -12 0 -19 -10 -23 -37z"/>
<path d="M832 518 c-19 -19 -15 -23 25 -23 20 0 38 -6 40 -12 3 -9 -7 -13 -32
-13 -20 0 -45 -5 -56 -10 -21 -12 -25 -50 -7 -68 15 -15 54 -16 63 -2 3 6 17
7 30 4 21 -5 25 -1 34 33 15 52 14 69 -5 87 -18 19 -75 21 -92 4z m58 -76 c0
-14 -23 -32 -42 -32 -18 0 -25 20 -11 33 9 10 53 9 53 -1z"/>
<path d="M980 478 c-6 -29 -14 -61 -17 -70 -3 -14 2 -18 20 -18 20 0 25 6 30
36 7 44 23 64 50 64 18 0 19 -4 13 -51 -7 -48 -6 -50 16 -47 18 2 24 12 31 51
12 75 -18 106 -74 77 -13 -7 -19 -7 -19 0 0 5 -9 10 -19 10 -15 0 -22 -12 -31
-52z"/>
<path d="M1183 515 c-33 -23 -29 -54 7 -66 42 -15 39 -39 -4 -39 -38 0 -55
-14 -30 -24 78 -30 146 42 74 79 -40 21 -38 35 6 35 24 0 34 4 32 13 -7 18
-60 20 -85 2z"/>
<path d="M1333 518 c-12 -6 -27 -26 -34 -45 -19 -59 31 -105 96 -89 38 10 32
33 -8 28 -22 -2 -38 2 -46 12 -12 14 -7 16 43 16 55 0 56 1 56 28 0 52 -52 76
-107 50z m71 -33 c4 -12 -3 -15 -29 -15 -34 0 -47 13 -22 23 24 10 45 7 51 -8z"/>
<path d="M1486 513 c-2 -10 -7 -34 -11 -53 -4 -19 -9 -43 -11 -52 -4 -14 1
-18 19 -18 20 0 25 6 30 36 7 44 23 64 50 64 18 0 19 -4 13 -50 -6 -45 -5 -50
13 -50 20 0 24 8 36 67 12 59 -25 90 -76 63 -13 -7 -19 -7 -19 0 0 17 -38 11
-44 -7z"/>
<path d="M1686 509 c-35 -27 -37 -90 -4 -113 23 -17 55 -20 82 -10 29 11 17
29 -21 29 -20 0 -38 6 -40 13 -3 8 10 12 46 12 l51 0 0 35 c0 56 -62 75 -114
34z m82 -26 c2 -9 -8 -13 -33 -13 -33 0 -36 2 -25 15 15 18 51 16 58 -2z"/>
<path d="M1840 473 c-7 -32 -15 -63 -17 -70 -3 -8 4 -13 20 -13 20 0 25 6 30
36 7 43 23 64 49 64 19 0 36 26 24 37 -3 3 -17 1 -31 -5 -15 -7 -25 -8 -25 -2
0 6 -9 10 -19 10 -16 0 -22 -11 -31 -57z"/>
</g>
</svg>
